<mxfile host="app.diagrams.net" modified="2023-05-14T06:00:16.814Z" agent="Mozilla/5.0 (Windows NT 10.0; Win64; x64) AppleWebKit/537.36 (KHTML, like Gecko) Chrome/113.0.0.0 Safari/537.36" etag="Stasc6a5Lxfc3U3rnXX7" version="21.3.0" type="device" pages="3">
  <diagram id="R2lEEEUBdFMjLlhIrx00" name="Page-1">
    <mxGraphModel dx="656" dy="474" grid="1" gridSize="10" guides="1" tooltips="1" connect="1" arrows="1" fold="1" page="1" pageScale="1" pageWidth="850" pageHeight="1100" background="#FFFFFF" math="0" shadow="0" extFonts="Permanent Marker^https://fonts.googleapis.com/css?family=Permanent+Marker">
      <root>
        <mxCell id="0" />
        <mxCell id="1" parent="0" />
        <mxCell id="ddpfhJhI-P_dVlgiJGb_-1" value="&lt;font style=&quot;font-size: 18px;&quot;&gt;&lt;b style=&quot;background-color: rgb(255, 255, 255);&quot;&gt;System&lt;/b&gt;&lt;/font&gt;" style="rounded=0;whiteSpace=wrap;html=1;" vertex="1" parent="1">
          <mxGeometry x="410" y="180" width="150" height="80" as="geometry" />
        </mxCell>
        <mxCell id="ddpfhJhI-P_dVlgiJGb_-3" value="" style="edgeStyle=orthogonalEdgeStyle;rounded=0;orthogonalLoop=1;jettySize=auto;html=1;" edge="1" parent="1" source="ddpfhJhI-P_dVlgiJGb_-2">
          <mxGeometry relative="1" as="geometry">
            <mxPoint x="480" y="180" as="targetPoint" />
            <Array as="points">
              <mxPoint x="480" y="150" />
              <mxPoint x="480" y="150" />
            </Array>
          </mxGeometry>
        </mxCell>
        <mxCell id="ddpfhJhI-P_dVlgiJGb_-2" value="&lt;b&gt;&lt;font style=&quot;font-size: 15px;&quot;&gt;Owner&lt;/font&gt;&lt;/b&gt;" style="ellipse;whiteSpace=wrap;html=1;" vertex="1" parent="1">
          <mxGeometry x="420" y="30" width="120" height="60" as="geometry" />
        </mxCell>
        <mxCell id="ddpfhJhI-P_dVlgiJGb_-4" value="&lt;font style=&quot;font-size: 13px;&quot;&gt;Use&lt;/font&gt;" style="text;html=1;strokeColor=none;fillColor=none;align=center;verticalAlign=middle;whiteSpace=wrap;rounded=0;" vertex="1" parent="1">
          <mxGeometry x="410" y="120" width="60" height="30" as="geometry" />
        </mxCell>
        <mxCell id="ddpfhJhI-P_dVlgiJGb_-8" value="" style="edgeStyle=orthogonalEdgeStyle;rounded=0;orthogonalLoop=1;jettySize=auto;html=1;entryX=0;entryY=0.5;entryDx=0;entryDy=0;" edge="1" parent="1" source="ddpfhJhI-P_dVlgiJGb_-6" target="ddpfhJhI-P_dVlgiJGb_-1">
          <mxGeometry relative="1" as="geometry">
            <mxPoint x="360" y="220" as="targetPoint" />
          </mxGeometry>
        </mxCell>
        <mxCell id="ddpfhJhI-P_dVlgiJGb_-6" value="&lt;span style=&quot;font-size: 15px;&quot;&gt;&lt;b&gt;Admin&lt;/b&gt;&lt;/span&gt;" style="ellipse;whiteSpace=wrap;html=1;" vertex="1" parent="1">
          <mxGeometry x="160" y="195" width="120" height="50" as="geometry" />
        </mxCell>
        <mxCell id="ddpfhJhI-P_dVlgiJGb_-9" value="&lt;font style=&quot;font-size: 13px;&quot;&gt;Control&lt;/font&gt;" style="text;html=1;strokeColor=none;fillColor=none;align=center;verticalAlign=middle;whiteSpace=wrap;rounded=0;" vertex="1" parent="1">
          <mxGeometry x="310" y="230" width="60" height="30" as="geometry" />
        </mxCell>
        <mxCell id="ddpfhJhI-P_dVlgiJGb_-12" value="" style="edgeStyle=orthogonalEdgeStyle;rounded=0;orthogonalLoop=1;jettySize=auto;html=1;" edge="1" parent="1" source="ddpfhJhI-P_dVlgiJGb_-11" target="ddpfhJhI-P_dVlgiJGb_-1">
          <mxGeometry relative="1" as="geometry" />
        </mxCell>
        <mxCell id="ddpfhJhI-P_dVlgiJGb_-11" value="&lt;span style=&quot;font-size: 15px;&quot;&gt;&lt;b&gt;Tenant&lt;/b&gt;&lt;/span&gt;" style="ellipse;whiteSpace=wrap;html=1;" vertex="1" parent="1">
          <mxGeometry x="670" y="195" width="120" height="50" as="geometry" />
        </mxCell>
        <mxCell id="ddpfhJhI-P_dVlgiJGb_-13" value="&lt;font style=&quot;font-size: 13px;&quot;&gt;Use&lt;/font&gt;" style="text;html=1;strokeColor=none;fillColor=none;align=center;verticalAlign=middle;whiteSpace=wrap;rounded=0;" vertex="1" parent="1">
          <mxGeometry x="590" y="230" width="60" height="30" as="geometry" />
        </mxCell>
        <mxCell id="ddpfhJhI-P_dVlgiJGb_-17" value="" style="endArrow=classic;html=1;rounded=0;exitX=0.5;exitY=0;exitDx=0;exitDy=0;" edge="1" parent="1" source="ddpfhJhI-P_dVlgiJGb_-11">
          <mxGeometry width="50" height="50" relative="1" as="geometry">
            <mxPoint x="720" y="190" as="sourcePoint" />
            <mxPoint x="540" y="59.5" as="targetPoint" />
            <Array as="points">
              <mxPoint x="730" y="60" />
            </Array>
          </mxGeometry>
        </mxCell>
        <mxCell id="ddpfhJhI-P_dVlgiJGb_-18" value="&lt;span style=&quot;font-size: 13px;&quot;&gt;Collaborates&lt;/span&gt;" style="text;html=1;strokeColor=none;fillColor=none;align=center;verticalAlign=middle;whiteSpace=wrap;rounded=0;" vertex="1" parent="1">
          <mxGeometry x="590" y="70" width="60" height="30" as="geometry" />
        </mxCell>
        <mxCell id="ddpfhJhI-P_dVlgiJGb_-19" value="&lt;b&gt;&lt;font style=&quot;font-size: 15px;&quot;&gt;Database&lt;/font&gt;&lt;/b&gt;" style="rounded=1;whiteSpace=wrap;html=1;" vertex="1" parent="1">
          <mxGeometry x="280" y="330" width="120" height="50" as="geometry" />
        </mxCell>
        <mxCell id="ddpfhJhI-P_dVlgiJGb_-20" value="" style="endArrow=classic;html=1;rounded=0;entryX=1;entryY=0.5;entryDx=0;entryDy=0;" edge="1" parent="1" target="ddpfhJhI-P_dVlgiJGb_-19">
          <mxGeometry width="50" height="50" relative="1" as="geometry">
            <mxPoint x="490" y="260" as="sourcePoint" />
            <mxPoint x="475" y="300" as="targetPoint" />
            <Array as="points">
              <mxPoint x="490" y="355" />
            </Array>
          </mxGeometry>
        </mxCell>
        <mxCell id="ddpfhJhI-P_dVlgiJGb_-22" value="" style="endArrow=classic;html=1;rounded=0;exitX=0.5;exitY=1;exitDx=0;exitDy=0;entryX=0;entryY=0.5;entryDx=0;entryDy=0;" edge="1" parent="1" source="ddpfhJhI-P_dVlgiJGb_-6" target="ddpfhJhI-P_dVlgiJGb_-19">
          <mxGeometry width="50" height="50" relative="1" as="geometry">
            <mxPoint x="140.5" y="290" as="sourcePoint" />
            <mxPoint x="260" y="360" as="targetPoint" />
            <Array as="points">
              <mxPoint x="220" y="355" />
            </Array>
          </mxGeometry>
        </mxCell>
        <mxCell id="ddpfhJhI-P_dVlgiJGb_-23" value="&lt;font style=&quot;font-size: 13px;&quot;&gt;Control&lt;/font&gt;" style="text;html=1;strokeColor=none;fillColor=none;align=center;verticalAlign=middle;whiteSpace=wrap;rounded=0;" vertex="1" parent="1">
          <mxGeometry x="140" y="280" width="60" height="30" as="geometry" />
        </mxCell>
        <mxCell id="ddpfhJhI-P_dVlgiJGb_-24" value="&lt;span style=&quot;font-size: 13px;&quot;&gt;Store data&lt;br&gt;&lt;/span&gt;" style="text;html=1;strokeColor=none;fillColor=none;align=center;verticalAlign=middle;whiteSpace=wrap;rounded=0;" vertex="1" parent="1">
          <mxGeometry x="500" y="280" width="80" height="30" as="geometry" />
        </mxCell>
      </root>
    </mxGraphModel>
  </diagram>
  <diagram id="8MrOcPU3OzEKup1RGKJV" name="Page-2">
    <mxGraphModel dx="729" dy="1627" grid="1" gridSize="10" guides="1" tooltips="1" connect="1" arrows="1" fold="1" page="1" pageScale="1" pageWidth="850" pageHeight="1100" math="0" shadow="0">
      <root>
        <mxCell id="0" />
        <mxCell id="1" parent="0" />
        <mxCell id="EtBCJ50RDPnMdi6swrLI-1" value="&lt;b&gt;&lt;font style=&quot;font-size: 14px;&quot;&gt;Admin&lt;/font&gt;&lt;/b&gt;" style="shape=umlActor;verticalLabelPosition=bottom;verticalAlign=top;html=1;outlineConnect=0;" vertex="1" parent="1">
          <mxGeometry x="40" y="220" width="30" height="60" as="geometry" />
        </mxCell>
        <mxCell id="EtBCJ50RDPnMdi6swrLI-4" value="&lt;b&gt;&lt;font style=&quot;font-size: 13px;&quot;&gt;Login&lt;/font&gt;&lt;/b&gt;" style="ellipse;whiteSpace=wrap;html=1;" vertex="1" parent="1">
          <mxGeometry x="270" y="10" width="120" height="40" as="geometry" />
        </mxCell>
        <mxCell id="EtBCJ50RDPnMdi6swrLI-5" value="&lt;b&gt;&lt;font style=&quot;font-size: 13px;&quot;&gt;Registration&lt;/font&gt;&lt;/b&gt;" style="ellipse;whiteSpace=wrap;html=1;" vertex="1" parent="1">
          <mxGeometry x="270" y="60" width="120" height="40" as="geometry" />
        </mxCell>
        <mxCell id="EtBCJ50RDPnMdi6swrLI-6" value="&lt;b&gt;&lt;font style=&quot;font-size: 13px;&quot;&gt;Conversation Box&lt;/font&gt;&lt;/b&gt;" style="ellipse;whiteSpace=wrap;html=1;" vertex="1" parent="1">
          <mxGeometry x="270" y="110" width="120" height="40" as="geometry" />
        </mxCell>
        <mxCell id="EtBCJ50RDPnMdi6swrLI-7" value="&lt;b&gt;&lt;font style=&quot;font-size: 13px;&quot;&gt;Advertisement&lt;/font&gt;&lt;/b&gt;" style="ellipse;whiteSpace=wrap;html=1;" vertex="1" parent="1">
          <mxGeometry x="270" y="160" width="120" height="40" as="geometry" />
        </mxCell>
        <mxCell id="EtBCJ50RDPnMdi6swrLI-8" value="&lt;b&gt;&lt;font style=&quot;font-size: 13px;&quot;&gt;Profile&lt;/font&gt;&lt;/b&gt;" style="ellipse;whiteSpace=wrap;html=1;" vertex="1" parent="1">
          <mxGeometry x="270" y="210" width="120" height="40" as="geometry" />
        </mxCell>
        <mxCell id="EtBCJ50RDPnMdi6swrLI-9" value="&lt;b&gt;&lt;font style=&quot;font-size: 13px;&quot;&gt;Reset Password&lt;/font&gt;&lt;/b&gt;" style="ellipse;whiteSpace=wrap;html=1;" vertex="1" parent="1">
          <mxGeometry x="270" y="260" width="120" height="40" as="geometry" />
        </mxCell>
        <mxCell id="EtBCJ50RDPnMdi6swrLI-10" value="&lt;b&gt;&lt;font style=&quot;font-size: 13px;&quot;&gt;Google Map&lt;/font&gt;&lt;/b&gt;" style="ellipse;whiteSpace=wrap;html=1;" vertex="1" parent="1">
          <mxGeometry x="270" y="310" width="120" height="40" as="geometry" />
        </mxCell>
        <mxCell id="EtBCJ50RDPnMdi6swrLI-11" value="&lt;b&gt;&lt;font style=&quot;font-size: 13px;&quot;&gt;Database Control&lt;/font&gt;&lt;/b&gt;" style="ellipse;whiteSpace=wrap;html=1;" vertex="1" parent="1">
          <mxGeometry x="270" y="360" width="120" height="40" as="geometry" />
        </mxCell>
        <mxCell id="EtBCJ50RDPnMdi6swrLI-12" value="&lt;b&gt;&lt;font style=&quot;font-size: 13px;&quot;&gt;Refresh Page&lt;/font&gt;&lt;/b&gt;" style="ellipse;whiteSpace=wrap;html=1;" vertex="1" parent="1">
          <mxGeometry x="270" y="410" width="120" height="40" as="geometry" />
        </mxCell>
        <mxCell id="EtBCJ50RDPnMdi6swrLI-13" value="&lt;b&gt;&lt;font style=&quot;font-size: 13px;&quot;&gt;Logout&lt;/font&gt;&lt;/b&gt;" style="ellipse;whiteSpace=wrap;html=1;" vertex="1" parent="1">
          <mxGeometry x="270" y="460" width="120" height="40" as="geometry" />
        </mxCell>
        <mxCell id="EtBCJ50RDPnMdi6swrLI-14" value="&lt;b&gt;&lt;font style=&quot;font-size: 14px;&quot;&gt;Owner&lt;/font&gt;&lt;/b&gt;" style="shape=umlActor;verticalLabelPosition=bottom;verticalAlign=top;html=1;outlineConnect=0;" vertex="1" parent="1">
          <mxGeometry x="600" y="10" width="30" height="60" as="geometry" />
        </mxCell>
        <mxCell id="EtBCJ50RDPnMdi6swrLI-15" value="&lt;b&gt;&lt;font style=&quot;font-size: 14px;&quot;&gt;Tenant&lt;/font&gt;&lt;/b&gt;" style="shape=umlActor;verticalLabelPosition=bottom;verticalAlign=top;html=1;outlineConnect=0;" vertex="1" parent="1">
          <mxGeometry x="600" y="350" width="30" height="60" as="geometry" />
        </mxCell>
        <mxCell id="EtBCJ50RDPnMdi6swrLI-16" value="" style="endArrow=classic;html=1;rounded=0;entryX=-0.019;entryY=0.686;entryDx=0;entryDy=0;entryPerimeter=0;" edge="1" parent="1" target="EtBCJ50RDPnMdi6swrLI-4">
          <mxGeometry width="50" height="50" relative="1" as="geometry">
            <mxPoint x="60" y="220" as="sourcePoint" />
            <mxPoint x="110" y="170" as="targetPoint" />
          </mxGeometry>
        </mxCell>
        <mxCell id="EtBCJ50RDPnMdi6swrLI-17" value="" style="endArrow=classic;html=1;rounded=0;entryX=0.073;entryY=0.825;entryDx=0;entryDy=0;entryPerimeter=0;" edge="1" parent="1" target="EtBCJ50RDPnMdi6swrLI-5">
          <mxGeometry width="50" height="50" relative="1" as="geometry">
            <mxPoint x="60" y="220" as="sourcePoint" />
            <mxPoint x="129" y="179" as="targetPoint" />
          </mxGeometry>
        </mxCell>
        <mxCell id="EtBCJ50RDPnMdi6swrLI-18" value="" style="endArrow=classic;html=1;rounded=0;exitX=1;exitY=0.3333333333333333;exitDx=0;exitDy=0;exitPerimeter=0;entryX=0.027;entryY=0.825;entryDx=0;entryDy=0;entryPerimeter=0;" edge="1" parent="1" source="EtBCJ50RDPnMdi6swrLI-1" target="EtBCJ50RDPnMdi6swrLI-6">
          <mxGeometry width="50" height="50" relative="1" as="geometry">
            <mxPoint x="87" y="238" as="sourcePoint" />
            <mxPoint x="137" y="188" as="targetPoint" />
          </mxGeometry>
        </mxCell>
        <mxCell id="EtBCJ50RDPnMdi6swrLI-19" value="" style="endArrow=classic;html=1;rounded=0;exitX=1;exitY=0.3333333333333333;exitDx=0;exitDy=0;exitPerimeter=0;entryX=0;entryY=0.5;entryDx=0;entryDy=0;" edge="1" parent="1" source="EtBCJ50RDPnMdi6swrLI-1" target="EtBCJ50RDPnMdi6swrLI-8">
          <mxGeometry width="50" height="50" relative="1" as="geometry">
            <mxPoint x="110" y="250" as="sourcePoint" />
            <mxPoint x="313" y="153" as="targetPoint" />
          </mxGeometry>
        </mxCell>
        <mxCell id="EtBCJ50RDPnMdi6swrLI-20" value="" style="endArrow=classic;html=1;rounded=0;entryX=-0.001;entryY=0.214;entryDx=0;entryDy=0;entryPerimeter=0;" edge="1" parent="1" target="EtBCJ50RDPnMdi6swrLI-9">
          <mxGeometry width="50" height="50" relative="1" as="geometry">
            <mxPoint x="55" y="250" as="sourcePoint" />
            <mxPoint x="323" y="193" as="targetPoint" />
          </mxGeometry>
        </mxCell>
        <mxCell id="EtBCJ50RDPnMdi6swrLI-21" value="" style="endArrow=classic;html=1;rounded=0;entryX=-0.001;entryY=0.131;entryDx=0;entryDy=0;entryPerimeter=0;exitX=1;exitY=1;exitDx=0;exitDy=0;exitPerimeter=0;" edge="1" parent="1" source="EtBCJ50RDPnMdi6swrLI-1" target="EtBCJ50RDPnMdi6swrLI-11">
          <mxGeometry width="50" height="50" relative="1" as="geometry">
            <mxPoint x="160" y="340" as="sourcePoint" />
            <mxPoint x="375" y="359" as="targetPoint" />
          </mxGeometry>
        </mxCell>
        <mxCell id="EtBCJ50RDPnMdi6swrLI-22" value="" style="endArrow=classic;html=1;rounded=0;entryX=0.083;entryY=0.25;entryDx=0;entryDy=0;entryPerimeter=0;exitX=1;exitY=1;exitDx=0;exitDy=0;exitPerimeter=0;" edge="1" parent="1" source="EtBCJ50RDPnMdi6swrLI-1" target="EtBCJ50RDPnMdi6swrLI-12">
          <mxGeometry width="50" height="50" relative="1" as="geometry">
            <mxPoint x="80" y="420" as="sourcePoint" />
            <mxPoint x="280" y="505" as="targetPoint" />
          </mxGeometry>
        </mxCell>
        <mxCell id="EtBCJ50RDPnMdi6swrLI-23" value="" style="endArrow=classic;html=1;rounded=0;entryX=0;entryY=0.5;entryDx=0;entryDy=0;" edge="1" parent="1" target="EtBCJ50RDPnMdi6swrLI-13">
          <mxGeometry width="50" height="50" relative="1" as="geometry">
            <mxPoint x="80" y="290" as="sourcePoint" />
            <mxPoint x="270" y="500" as="targetPoint" />
          </mxGeometry>
        </mxCell>
        <mxCell id="EtBCJ50RDPnMdi6swrLI-24" value="" style="endArrow=classic;html=1;rounded=0;entryX=1;entryY=0.5;entryDx=0;entryDy=0;" edge="1" parent="1" source="EtBCJ50RDPnMdi6swrLI-14" target="EtBCJ50RDPnMdi6swrLI-4">
          <mxGeometry width="50" height="50" relative="1" as="geometry">
            <mxPoint x="510" y="80" as="sourcePoint" />
            <mxPoint x="560" y="30" as="targetPoint" />
          </mxGeometry>
        </mxCell>
        <mxCell id="EtBCJ50RDPnMdi6swrLI-25" value="" style="endArrow=classic;html=1;rounded=0;entryX=0.944;entryY=0.325;entryDx=0;entryDy=0;entryPerimeter=0;" edge="1" parent="1" source="EtBCJ50RDPnMdi6swrLI-14" target="EtBCJ50RDPnMdi6swrLI-5">
          <mxGeometry width="50" height="50" relative="1" as="geometry">
            <mxPoint x="463" y="93" as="sourcePoint" />
            <mxPoint x="513" y="43" as="targetPoint" />
          </mxGeometry>
        </mxCell>
        <mxCell id="EtBCJ50RDPnMdi6swrLI-26" value="" style="endArrow=classic;html=1;rounded=0;entryX=1;entryY=0.5;entryDx=0;entryDy=0;" edge="1" parent="1" target="EtBCJ50RDPnMdi6swrLI-6">
          <mxGeometry width="50" height="50" relative="1" as="geometry">
            <mxPoint x="600" y="40" as="sourcePoint" />
            <mxPoint x="511" y="66" as="targetPoint" />
          </mxGeometry>
        </mxCell>
        <mxCell id="EtBCJ50RDPnMdi6swrLI-27" value="" style="endArrow=classic;html=1;rounded=0;" edge="1" parent="1" target="EtBCJ50RDPnMdi6swrLI-7">
          <mxGeometry width="50" height="50" relative="1" as="geometry">
            <mxPoint x="600" y="40" as="sourcePoint" />
            <mxPoint x="380" y="170" as="targetPoint" />
          </mxGeometry>
        </mxCell>
        <mxCell id="EtBCJ50RDPnMdi6swrLI-28" value="" style="endArrow=classic;html=1;rounded=0;entryX=0.925;entryY=0.103;entryDx=0;entryDy=0;exitX=0.5;exitY=0.5;exitDx=0;exitDy=0;exitPerimeter=0;entryPerimeter=0;" edge="1" parent="1" source="EtBCJ50RDPnMdi6swrLI-14" target="EtBCJ50RDPnMdi6swrLI-8">
          <mxGeometry width="50" height="50" relative="1" as="geometry">
            <mxPoint x="440" y="190" as="sourcePoint" />
            <mxPoint x="230" y="280" as="targetPoint" />
          </mxGeometry>
        </mxCell>
        <mxCell id="EtBCJ50RDPnMdi6swrLI-29" value="" style="endArrow=classic;html=1;rounded=0;entryX=0.934;entryY=0.158;entryDx=0;entryDy=0;entryPerimeter=0;" edge="1" parent="1" target="EtBCJ50RDPnMdi6swrLI-9">
          <mxGeometry width="50" height="50" relative="1" as="geometry">
            <mxPoint x="600" y="70" as="sourcePoint" />
            <mxPoint x="390" y="282" as="targetPoint" />
          </mxGeometry>
        </mxCell>
        <mxCell id="EtBCJ50RDPnMdi6swrLI-30" value="" style="endArrow=classic;html=1;rounded=0;" edge="1" parent="1">
          <mxGeometry width="50" height="50" relative="1" as="geometry">
            <mxPoint x="590" y="80" as="sourcePoint" />
            <mxPoint x="380" y="320" as="targetPoint" />
          </mxGeometry>
        </mxCell>
        <mxCell id="EtBCJ50RDPnMdi6swrLI-31" value="" style="endArrow=classic;html=1;rounded=0;" edge="1" parent="1">
          <mxGeometry width="50" height="50" relative="1" as="geometry">
            <mxPoint x="593" y="80" as="sourcePoint" />
            <mxPoint x="383" y="420" as="targetPoint" />
          </mxGeometry>
        </mxCell>
        <mxCell id="EtBCJ50RDPnMdi6swrLI-32" value="" style="endArrow=classic;html=1;rounded=0;" edge="1" parent="1">
          <mxGeometry width="50" height="50" relative="1" as="geometry">
            <mxPoint x="590" y="80" as="sourcePoint" />
            <mxPoint x="387" y="474" as="targetPoint" />
          </mxGeometry>
        </mxCell>
        <mxCell id="EtBCJ50RDPnMdi6swrLI-33" value="" style="endArrow=classic;html=1;rounded=0;entryX=0.953;entryY=0.769;entryDx=0;entryDy=0;entryPerimeter=0;exitX=0.5;exitY=0;exitDx=0;exitDy=0;exitPerimeter=0;" edge="1" parent="1" source="EtBCJ50RDPnMdi6swrLI-15" target="EtBCJ50RDPnMdi6swrLI-4">
          <mxGeometry width="50" height="50" relative="1" as="geometry">
            <mxPoint x="642" y="101" as="sourcePoint" />
            <mxPoint x="439" y="495" as="targetPoint" />
          </mxGeometry>
        </mxCell>
        <mxCell id="EtBCJ50RDPnMdi6swrLI-34" value="" style="endArrow=classic;html=1;rounded=0;entryX=1;entryY=1;entryDx=0;entryDy=0;exitX=0.5;exitY=0;exitDx=0;exitDy=0;exitPerimeter=0;" edge="1" parent="1" source="EtBCJ50RDPnMdi6swrLI-15" target="EtBCJ50RDPnMdi6swrLI-5">
          <mxGeometry width="50" height="50" relative="1" as="geometry">
            <mxPoint x="560" y="330" as="sourcePoint" />
            <mxPoint x="329" y="21" as="targetPoint" />
          </mxGeometry>
        </mxCell>
        <mxCell id="EtBCJ50RDPnMdi6swrLI-35" value="" style="endArrow=classic;html=1;rounded=0;entryX=1;entryY=1;entryDx=0;entryDy=0;exitX=0.5;exitY=0;exitDx=0;exitDy=0;exitPerimeter=0;" edge="1" parent="1" source="EtBCJ50RDPnMdi6swrLI-15" target="EtBCJ50RDPnMdi6swrLI-6">
          <mxGeometry width="50" height="50" relative="1" as="geometry">
            <mxPoint x="540" y="350" as="sourcePoint" />
            <mxPoint x="309" y="41" as="targetPoint" />
          </mxGeometry>
        </mxCell>
        <mxCell id="EtBCJ50RDPnMdi6swrLI-36" value="" style="endArrow=classic;html=1;rounded=0;entryX=1;entryY=1;entryDx=0;entryDy=0;exitX=0;exitY=0.3333333333333333;exitDx=0;exitDy=0;exitPerimeter=0;" edge="1" parent="1" source="EtBCJ50RDPnMdi6swrLI-15" target="EtBCJ50RDPnMdi6swrLI-8">
          <mxGeometry width="50" height="50" relative="1" as="geometry">
            <mxPoint x="490" y="380" as="sourcePoint" />
            <mxPoint x="259" y="71" as="targetPoint" />
          </mxGeometry>
        </mxCell>
        <mxCell id="EtBCJ50RDPnMdi6swrLI-37" value="" style="endArrow=classic;html=1;rounded=0;" edge="1" parent="1">
          <mxGeometry width="50" height="50" relative="1" as="geometry">
            <mxPoint x="600" y="370" as="sourcePoint" />
            <mxPoint x="380" y="290" as="targetPoint" />
          </mxGeometry>
        </mxCell>
        <mxCell id="EtBCJ50RDPnMdi6swrLI-38" value="" style="endArrow=classic;html=1;rounded=0;exitX=0.5;exitY=0.5;exitDx=0;exitDy=0;exitPerimeter=0;" edge="1" parent="1" source="EtBCJ50RDPnMdi6swrLI-15">
          <mxGeometry width="50" height="50" relative="1" as="geometry">
            <mxPoint x="610" y="410" as="sourcePoint" />
            <mxPoint x="390" y="330" as="targetPoint" />
          </mxGeometry>
        </mxCell>
        <mxCell id="EtBCJ50RDPnMdi6swrLI-39" value="" style="endArrow=classic;html=1;rounded=0;exitX=0.5;exitY=0.5;exitDx=0;exitDy=0;exitPerimeter=0;entryX=1;entryY=0.5;entryDx=0;entryDy=0;" edge="1" parent="1" source="EtBCJ50RDPnMdi6swrLI-15" target="EtBCJ50RDPnMdi6swrLI-12">
          <mxGeometry width="50" height="50" relative="1" as="geometry">
            <mxPoint x="500" y="450" as="sourcePoint" />
            <mxPoint x="275" y="400" as="targetPoint" />
          </mxGeometry>
        </mxCell>
        <mxCell id="EtBCJ50RDPnMdi6swrLI-40" value="" style="endArrow=classic;html=1;rounded=0;entryX=0.814;entryY=-0.008;entryDx=0;entryDy=0;entryPerimeter=0;" edge="1" parent="1" target="EtBCJ50RDPnMdi6swrLI-13">
          <mxGeometry width="50" height="50" relative="1" as="geometry">
            <mxPoint x="610" y="380" as="sourcePoint" />
            <mxPoint x="205" y="390" as="targetPoint" />
          </mxGeometry>
        </mxCell>
        <mxCell id="EtBCJ50RDPnMdi6swrLI-41" value="" style="swimlane;startSize=0;" vertex="1" parent="1">
          <mxGeometry x="200" y="-20" width="290" height="550" as="geometry" />
        </mxCell>
      </root>
    </mxGraphModel>
  </diagram>
  <diagram id="4_rklKtUpqILcWFoBYbX" name="Page-3">
    <mxGraphModel dx="656" dy="474" grid="1" gridSize="10" guides="1" tooltips="1" connect="1" arrows="1" fold="1" page="1" pageScale="1" pageWidth="850" pageHeight="1100" math="0" shadow="0">
      <root>
        <mxCell id="0" />
        <mxCell id="1" parent="0" />
        <mxCell id="zL0i4t9iWfhN_r9VmYWH-1" value="List" style="swimlane;fontStyle=0;childLayout=stackLayout;horizontal=1;startSize=30;horizontalStack=0;resizeParent=1;resizeParentMax=0;resizeLast=0;collapsible=1;marginBottom=0;whiteSpace=wrap;html=1;" vertex="1" parent="1">
          <mxGeometry x="70" y="70" width="140" height="120" as="geometry" />
        </mxCell>
        <mxCell id="zL0i4t9iWfhN_r9VmYWH-2" value="Item 1" style="text;strokeColor=none;fillColor=none;align=left;verticalAlign=middle;spacingLeft=4;spacingRight=4;overflow=hidden;points=[[0,0.5],[1,0.5]];portConstraint=eastwest;rotatable=0;whiteSpace=wrap;html=1;" vertex="1" parent="zL0i4t9iWfhN_r9VmYWH-1">
          <mxGeometry y="30" width="140" height="30" as="geometry" />
        </mxCell>
        <mxCell id="zL0i4t9iWfhN_r9VmYWH-3" value="Item 2" style="text;strokeColor=none;fillColor=none;align=left;verticalAlign=middle;spacingLeft=4;spacingRight=4;overflow=hidden;points=[[0,0.5],[1,0.5]];portConstraint=eastwest;rotatable=0;whiteSpace=wrap;html=1;" vertex="1" parent="zL0i4t9iWfhN_r9VmYWH-1">
          <mxGeometry y="60" width="140" height="30" as="geometry" />
        </mxCell>
        <mxCell id="zL0i4t9iWfhN_r9VmYWH-4" value="Item 3" style="text;strokeColor=none;fillColor=none;align=left;verticalAlign=middle;spacingLeft=4;spacingRight=4;overflow=hidden;points=[[0,0.5],[1,0.5]];portConstraint=eastwest;rotatable=0;whiteSpace=wrap;html=1;" vertex="1" parent="zL0i4t9iWfhN_r9VmYWH-1">
          <mxGeometry y="90" width="140" height="30" as="geometry" />
        </mxCell>
        <mxCell id="zL0i4t9iWfhN_r9VmYWH-9" value="List" style="swimlane;fontStyle=0;childLayout=stackLayout;horizontal=1;startSize=30;horizontalStack=0;resizeParent=1;resizeParentMax=0;resizeLast=0;collapsible=1;marginBottom=0;whiteSpace=wrap;html=1;" vertex="1" parent="1">
          <mxGeometry x="428" y="69" width="140" height="120" as="geometry" />
        </mxCell>
        <mxCell id="zL0i4t9iWfhN_r9VmYWH-10" value="Item 1" style="text;strokeColor=none;fillColor=none;align=left;verticalAlign=middle;spacingLeft=4;spacingRight=4;overflow=hidden;points=[[0,0.5],[1,0.5]];portConstraint=eastwest;rotatable=0;whiteSpace=wrap;html=1;" vertex="1" parent="zL0i4t9iWfhN_r9VmYWH-9">
          <mxGeometry y="30" width="140" height="30" as="geometry" />
        </mxCell>
        <mxCell id="zL0i4t9iWfhN_r9VmYWH-11" value="Item 2" style="text;strokeColor=none;fillColor=none;align=left;verticalAlign=middle;spacingLeft=4;spacingRight=4;overflow=hidden;points=[[0,0.5],[1,0.5]];portConstraint=eastwest;rotatable=0;whiteSpace=wrap;html=1;" vertex="1" parent="zL0i4t9iWfhN_r9VmYWH-9">
          <mxGeometry y="60" width="140" height="30" as="geometry" />
        </mxCell>
        <mxCell id="zL0i4t9iWfhN_r9VmYWH-12" value="Item 3" style="text;strokeColor=none;fillColor=none;align=left;verticalAlign=middle;spacingLeft=4;spacingRight=4;overflow=hidden;points=[[0,0.5],[1,0.5]];portConstraint=eastwest;rotatable=0;whiteSpace=wrap;html=1;" vertex="1" parent="zL0i4t9iWfhN_r9VmYWH-9">
          <mxGeometry y="90" width="140" height="30" as="geometry" />
        </mxCell>
        <mxCell id="zL0i4t9iWfhN_r9VmYWH-13" value="List" style="swimlane;fontStyle=0;childLayout=stackLayout;horizontal=1;startSize=30;horizontalStack=0;resizeParent=1;resizeParentMax=0;resizeLast=0;collapsible=1;marginBottom=0;whiteSpace=wrap;html=1;" vertex="1" parent="1">
          <mxGeometry x="273" y="308" width="140" height="120" as="geometry" />
        </mxCell>
        <mxCell id="zL0i4t9iWfhN_r9VmYWH-14" value="Item 1" style="text;strokeColor=none;fillColor=none;align=left;verticalAlign=middle;spacingLeft=4;spacingRight=4;overflow=hidden;points=[[0,0.5],[1,0.5]];portConstraint=eastwest;rotatable=0;whiteSpace=wrap;html=1;" vertex="1" parent="zL0i4t9iWfhN_r9VmYWH-13">
          <mxGeometry y="30" width="140" height="30" as="geometry" />
        </mxCell>
        <mxCell id="zL0i4t9iWfhN_r9VmYWH-15" value="Item 2" style="text;strokeColor=none;fillColor=none;align=left;verticalAlign=middle;spacingLeft=4;spacingRight=4;overflow=hidden;points=[[0,0.5],[1,0.5]];portConstraint=eastwest;rotatable=0;whiteSpace=wrap;html=1;" vertex="1" parent="zL0i4t9iWfhN_r9VmYWH-13">
          <mxGeometry y="60" width="140" height="30" as="geometry" />
        </mxCell>
        <mxCell id="zL0i4t9iWfhN_r9VmYWH-16" value="Item 3" style="text;strokeColor=none;fillColor=none;align=left;verticalAlign=middle;spacingLeft=4;spacingRight=4;overflow=hidden;points=[[0,0.5],[1,0.5]];portConstraint=eastwest;rotatable=0;whiteSpace=wrap;html=1;" vertex="1" parent="zL0i4t9iWfhN_r9VmYWH-13">
          <mxGeometry y="90" width="140" height="30" as="geometry" />
        </mxCell>
      </root>
    </mxGraphModel>
  </diagram>
</mxfile>
